<?xml version="1.0" encoding="UTF-8"?>
<svg xmlns="http://www.w3.org/2000/svg"
 viewBox="0 0 249 347" preserveAspectRatio="xMidYMid meet">

<defs>
  <!-- Vertical gradient matching original logo color distribution -->
  <!-- Applied in path coordinate space (y inverted: high y = top of image) -->
  <linearGradient id="logoGrad" x1="0" y1="3300" x2="0" y2="700" gradientUnits="userSpaceOnUse">
    <stop offset="0%" stop-color="#0B3350"/>
    <stop offset="18%" stop-color="#0E3D5E"/>
    <stop offset="28%" stop-color="#1B6B30"/>
    <stop offset="38%" stop-color="#1E7B3C"/>
    <stop offset="48%" stop-color="#0E3D5E"/>
    <stop offset="58%" stop-color="#0B3350"/>
    <stop offset="72%" stop-color="#0D3555"/>
    <stop offset="85%" stop-color="#182F40"/>
    <stop offset="100%" stop-color="#0B3350"/>
  </linearGradient>
</defs>

<g transform="translate(0,347) scale(0.1,-0.1)" stroke="none">

<!-- ====== MAIN GRAPHIC (exact traced paths with gradient fill) ====== -->
<g fill="url(#logoGrad)">

<path d="M1050 3199 c-140 -99 -263 -186 -272 -194 -16 -13 -18 -36 -18 -204
l0 -190 -50 31 c-45 28 -52 30 -68 16 -9 -8 -62 -52 -117 -98 -55 -46 -105
-90 -112 -98 -9 -11 -12 -125 -13 -439 l0 -424 30 17 30 18 0 401 0 401 88 73
87 72 3 -421 c1 -231 4 -420 6 -420 2 0 43 18 91 40 l86 40 -2 572 -1 572 23
19 c13 11 85 62 159 115 74 52 165 117 203 143 l67 49 0 -190 c0 -105 -2 -190
-5 -190 -3 0 -21 6 -40 14 -33 14 -75 12 -75 -4 0 -4 -9 -10 -20 -13 -11 -3
-20 -12 -20 -21 0 -12 -10 -16 -35 -16 -19 0 -35 -2 -35 -5 0 -9 33 -102 53
-148 l20 -49 76 4 76 3 3 -48 3 -48 -30 15 c-16 9 -38 16 -49 16 -29 0 -71
-23 -78 -42 -4 -13 -16 -18 -40 -18 -21 0 -34 -5 -34 -12 1 -7 16 -51 34 -98
l33 -85 82 -3 81 -3 0 -49 0 -50 -32 20 c-46 28 -67 25 -111 -14 -25 -22 -47
-33 -63 -31 -30 3 -30 -2 9 -105 l33 -85 82 -3 c81 -3 82 -3 82 -29 0 -21 3
-24 23 -19 12 3 25 6 29 6 4 0 5 9 3 20 -4 18 2 20 65 20 39 0 122 12 197 29
71 16 167 36 214 43 l84 13 -64 6 c-34 3 -66 11 -70 17 -4 6 -109 11 -296 13
-306 4 -345 6 -345 20 0 5 176 9 406 9 l405 0 -15 -22 c-23 -32 -20 -40 11
-36 23 2 31 12 45 51 l18 47 -33 0 c-22 0 -41 8 -55 23 -48 51 -79 60 -90 27
-5 -13 -3 -13 11 -1 15 12 17 11 17 -6 0 -10 4 -23 10 -28 6 -7 -16 -9 -59 -7
-62 3 -70 6 -80 29 -9 21 -17 24 -39 20 -16 -3 -35 0 -46 9 -27 19 -38 18 -66
-8 -28 -26 -52 -25 -91 5 -26 18 -31 19 -56 7 -55 -28 -88 -9 -75 43 4 15 22
17 198 17 l194 0 0 -48 c0 -45 1 -48 27 -46 26 1 27 3 24 47 l-3 47 39 1 c21
1 52 1 69 1 31 0 33 2 68 95 20 53 35 97 34 99 -2 1 -56 4 -120 6 -73 2 -117
7 -114 13 1 6 10 9 19 7 8 -1 18 2 22 8 3 5 1 10 -4 10 -6 0 -11 18 -11 39 0
46 9 51 85 51 l53 0 30 78 c17 42 33 85 37 95 6 14 1 17 -30 17 -24 0 -43 7
-52 18 -13 15 -14 15 -9 0 4 -15 -8 -16 -132 -14 -186 4 -179 3 -185 26 -3 12
-1 20 6 19 7 -1 21 -1 32 0 15 1 16 4 7 13 -10 10 -15 10 -21 -1 -7 -11 -9
-11 -14 0 -4 10 -13 6 -31 -16 -14 -16 -26 -24 -26 -17 0 6 -7 12 -15 12 -9 0
-29 10 -45 21 -28 21 -30 21 -55 5 -14 -9 -38 -15 -53 -13 l-27 4 -3 226 c-1
125 -6 227 -10 226 -4 0 -122 -81 -262 -180z m860 -375 c0 0 -7 -21 -16 -47
-16 -46 -17 -47 -59 -47 -26 0 -45 5 -48 13 -3 9 -8 8 -22 -3 -10 -8 -16 -10
-12 -4 7 13 -41 23 -113 25 -41 0 -43 1 -20 11 24 11 23 12 -20 19 -25 4 -145
8 -267 8 -135 1 -223 5 -223 11 0 13 117 17 482 16 175 -1 318 -1 318 -2z
m-190 -210 c5 -59 4 -60 -20 -61 -20 -1 -21 0 -7 6 22 8 24 21 5 32 -26 17
-47 10 -41 -12 6 -20 3 -21 -58 -16 -91 8 -103 10 -134 35 -33 26 -43 27 -66
7 -18 -18 -68 -11 -70 9 -1 6 -2 18 -3 26 -4 38 11 41 203 38 l186 -3 5 -61z
m-992 -44 c31 -19 32 -22 32 -89 0 -68 -1 -70 -34 -90 -18 -12 -36 -21 -40
-21 -3 0 -6 50 -6 110 0 61 3 110 8 110 4 0 22 -9 40 -20z m1182 -77 c0 -18
-36 -59 -52 -60 -41 -2 -43 -3 -28 -14 12 -9 11 -10 -5 -4 -11 3 -41 11 -67
17 -26 6 -45 15 -43 19 9 14 -43 18 -322 25 -156 4 -283 11 -283 15 0 5 180 9
400 9 220 0 400 -3 400 -7z m-1182 -215 c-41 -34 -48 -35 -48 -4 0 16 13 35
38 56 l37 31 3 -28 c3 -21 -4 -33 -30 -55z m1137 -36 c-3 -3 -11 0 -18 7 -9
10 -8 11 6 5 10 -3 15 -9 12 -12z m-1132 -79 c-36 -29 -53 -29 -53 0 0 16 12
33 38 51 l37 26 3 -27 c3 -21 -3 -33 -25 -50z m930 -30 c-7 -2 -19 -2 -25 0
-7 3 -2 5 12 5 14 0 19 -2 13 -5z m-903 -42 c0 -23 -8 -34 -34 -50 -42 -27
-46 -26 -46 3 0 16 12 34 33 50 41 33 47 32 47 -3z"/>

<path d="M1557 2602 c-23 -25 -21 -32 7 -32 13 0 27 7 30 16 3 9 11 12 18 8 9
-5 9 -3 -1 9 -17 22 -34 21 -54 -1z m33 -7 c-7 -8 -18 -15 -24 -15 -6 0 -2 7
8 15 25 19 32 19 16 0z"/>

<path d="M1178 3159 c-16 -11 -28 -27 -28 -35 0 -8 -6 -11 -15 -7 -10 3 -15 0
-13 -8 2 -8 -4 -13 -14 -11 -20 3 -33 -14 -17 -24 8 -5 9 -3 4 6 -5 8 -3 11 6
8 17 -6 71 30 64 43 -4 5 4 8 17 6 13 -1 26 -9 30 -17 4 -9 7 1 7 23 1 42 -3
44 -41 16z"/>

<path d="M980 3018 c-47 -32 -92 -67 -101 -78 -15 -17 -17 -76 -18 -561 -2
-441 0 -540 11 -537 9 3 15 31 18 82 5 72 7 78 35 96 17 11 33 20 38 20 4 0 7
-36 7 -81 0 -60 3 -80 13 -76 9 3 12 123 12 555 1 506 2 552 18 570 9 10 14
22 10 27 -5 4 -2 5 4 1 16 -9 54 17 45 30 -4 7 -41 -13 -92 -48z m-10 -146 c0
-87 -2 -99 -20 -110 -12 -7 -19 -16 -16 -20 2 -4 -7 -8 -20 -8 -24 -2 -24 -1
-24 95 l0 96 33 22 c17 12 35 22 40 22 4 1 7 -43 7 -97z m0 -231 l0 -99 -34
-25 c-18 -15 -36 -23 -40 -20 -3 4 -6 49 -6 102 l0 96 33 22 c17 12 35 22 40
22 4 1 7 -43 7 -98z m-27 -348 c-48 -39 -53 -32 -53 70 l0 93 38 22 37 21 3
-92 c3 -90 2 -92 -25 -114z m27 -112 l0 -90 -33 -25 c-19 -15 -37 -26 -40 -26
-4 0 -7 40 -7 89 0 89 0 90 33 115 17 14 35 26 40 26 4 0 7 -40 7 -89z"/>

<path d="M1200 3006 c0 -8 5 -18 10 -21 6 -3 10 3 10 14 0 12 -4 21 -10 21 -5
0 -10 -6 -10 -14z"/>

<path d="M1810 2606 c0 -2 9 -6 20 -9 11 -3 18 -1 14 4 -5 9 -34 13 -34 5z"/>

<path d="M582 2468 c-15 -15 -16 -32 -2 -23 6 4 9 -20 9 -67 -1 -40 -4 -59 -7
-43 -5 30 -5 30 -12 5 -7 -24 -8 -24 -15 -5 -5 11 -17 26 -27 33 -15 11 -16
17 -7 28 9 11 8 14 -5 14 -14 0 -16 -36 -16 -376 l0 -375 50 27 50 27 0 384
c-1 211 -2 383 -3 383 -2 0 -8 -5 -15 -12z"/>

<path d="M1798 2046 c-21 -7 -40 -12 -43 -10 -3 2 -1 -1 3 -7 6 -7 18 -6 36 3
24 10 29 10 37 -5 6 -10 21 -16 37 -16 27 2 27 2 2 6 -40 8 -44 27 -7 34 l32
6 -30 1 c-16 1 -47 -5 -67 -12z"/>

<path d="M1630 2015 l-45 -14 48 6 c35 4 47 2 45 -7 -2 -7 4 -15 12 -17 13 -4
13 -3 0 6 -13 9 -12 11 5 12 l20 0 -20 8 -20 8 20 5 20 6 -20 0 c-11 0 -40 -6
-65 -13z"/>

<path d="M1783 2013 c-34 -7 -28 -20 7 -15 17 2 30 8 30 13 0 5 -3 8 -7 8 -5
-1 -18 -4 -30 -6z"/>

<path d="M1536 1991 c-6 -10 24 -25 32 -16 3 3 0 5 -7 5 -7 0 -9 5 -6 10 3 6
2 10 -4 10 -5 0 -12 -4 -15 -9z"/>

<path d="M2015 1980 c-576 -68 -1100 -222 -1510 -443 -102 -55 -315 -193 -316
-204 0 -5 -3 -20 -5 -35 -3 -16 0 -28 5 -28 5 0 36 17 68 38 32 22 77 51 101
66 l42 26 0 -127 0 -127 53 59 c51 58 52 60 58 136 8 100 29 136 100 171 78
40 109 44 142 18 21 -17 27 -30 27 -61 0 -42 2 -44 29 -29 15 7 17 17 11 55
-4 25 -17 56 -29 69 l-22 23 48 19 c26 10 51 20 55 22 4 2 1 -15 -7 -38 -8
-24 -15 -65 -15 -91 l0 -49 38 19 c33 17 38 24 40 57 7 92 84 165 183 172 56
4 60 3 94 -31 25 -25 35 -44 35 -66 0 -24 4 -31 20 -31 11 0 23 7 27 16 9 25
-16 95 -47 125 l-28 28 52 15 c28 8 66 17 84 21 l34 7 -26 -39 c-24 -37 -42
-97 -41 -138 0 -20 8 -21 61 -10 16 4 23 14 27 44 15 116 154 204 271 171 82
-23 124 -83 128 -181 l3 -63 -167 -27 c-593 -98 -940 -266 -1004 -486 -21 -71
-9 -140 39 -227 l34 -61 99 -8 c54 -4 128 -5 164 -3 36 3 78 5 93 6 l29 0 -39
48 c-45 54 -83 107 -83 116 0 3 18 6 41 6 37 0 46 -6 122 -83 45 -46 91 -87
101 -91 10 -3 108 -3 217 0 l198 7 -79 49 c-414 254 -303 501 282 632 62 14
158 30 213 36 177 19 165 14 165 66 l0 46 -110 -7 -110 -8 0 67 c0 38 7 83 16
104 28 67 101 128 177 146 25 6 27 10 27 56 0 50 0 50 -32 49 -18 -1 -100 -9
-183 -19z m-15 -96 c0 -3 -13 -22 -30 -42 -42 -54 -57 -97 -65 -190 -6 -68
-10 -82 -25 -82 -14 0 -18 12 -22 73 -6 86 -31 142 -84 184 l-38 30 105 12
c57 7 109 14 114 16 17 6 45 5 45 -1z m199 -338 c-2 -2 -40 -7 -84 -10 -56 -5
-76 -4 -65 3 13 10 159 16 149 7z m-388 -43 c-41 -7 -80 -14 -86 -17 -7 -2
-18 -1 -25 4 -7 5 17 12 61 19 41 7 81 13 89 15 8 1 20 0 25 -3 6 -3 -23 -11
-64 -18z m-256 -51 c-21 -17 -163 -55 -182 -47 -13 5 1 13 57 30 75 23 143 32
125 17z m-323 -127 c-24 -13 -55 -34 -69 -45 -16 -13 -41 -20 -67 -20 l-40 0
24 17 c59 41 128 73 160 73 l35 0 -43 -25z m-187 -167 c-4 -13 -10 -47 -12
-75 l-5 -53 -44 0 c-44 0 -44 0 -44 35 0 20 9 54 20 75 18 35 25 40 56 40 33
0 36 -2 29 -22z"/>

<path d="M1375 1956 c-253 -65 -479 -149 -714 -264 -151 -74 -343 -193 -429
-267 -68 -59 -48 -60 31 -1 208 155 602 339 932 435 77 22 163 47 190 56 28 8
76 20 107 26 55 12 70 29 25 29 -18 0 -19 2 -7 10 23 15 5 12 -135 -24z"/>

<path d="M1628 1973 c7 -3 16 -2 19 1 4 3 -2 6 -13 5 -11 0 -14 -3 -6 -6z"/>
<path d="M1588 1963 c7 -3 16 -2 19 1 4 3 -2 6 -13 5 -11 0 -14 -3 -6 -6z"/>
<path d="M1678 1583 c7 -3 16 -2 19 1 4 3 -2 6 -13 5 -11 0 -14 -3 -6 -6z"/>

<path d="M1525 1568 c-418 -63 -713 -155 -905 -283 -186 -124 -258 -289 -198
-455 l23 -65 83 -3 82 -3 -32 63 c-45 89 -51 193 -16 269 96 207 428 368 958
464 122 22 125 32 5 13z"/>

<path d="M2018 1433 c7 -3 16 -2 19 1 4 3 -2 6 -13 5 -11 0 -14 -3 -6 -6z"/>

<path d="M1908 1417 c-27 -6 -48 -14 -48 -19 0 -8 15 -6 100 18 55 15 16 16
-52 1z"/>

<path d="M1810 1393 c-8 -2 -22 -7 -30 -11 -8 -3 -22 -6 -31 -7 -66 -8 -246
-91 -242 -113 2 -6 -3 -9 -11 -6 -19 7 -73 -59 -86 -106 -8 -28 -8 -51 0 -79
22 -82 153 -191 326 -272 l84 -39 147 1 148 0 -90 28 c-252 78 -446 185 -491
272 -20 40 -18 108 6 146 10 18 37 44 59 59 23 14 38 31 34 37 -3 5 -1 7 5 3
6 -3 48 12 93 34 45 22 91 40 101 40 11 0 16 5 13 10 -7 11 -12 11 -35 3z"/>

</g>

<!-- ====== TEXT (exact traced paths with specific colors) ====== -->

<!-- D (first) - navy -->
<path fill="#0B3350" d="M190 415 l0 -195 111 0 c62 0 129 5 150 12 101 30 156 154 114 256 -40 94 -97 121 -257 122 l-118 0 0 -195z m247 95 c67 -40 65 -152 -2 -191 -17 -10 -57 -19 -90 -21 l-60 -3 -3 118 -3 117 63 0 c45 0 72 -6 95 -20z"/>

<!-- D (second) - navy -->
<path fill="#0B3350" d="M635 598 c-3 -7 -4 -94 -2 -193 l2 -180 122 -3 c106 -2 128 0 162 17 77 40 119 122 106 205 -13 76 -49 121 -124 152 -44 19 -259 20 -266 2z m244 -82 c32 -17 51 -54 51 -101 0 -80 -42 -115 -140 -115 l-60 0 0 115 0 115 60 0 c34 0 73 -6 89 -14z"/>

<!-- & - green -->
<path fill="#1E6B2F" d="M1174 606 c-60 -26 -83 -95 -47 -145 16 -23 15 -25 -14 -50 -41 -35 -56 -67 -49 -104 17 -85 134 -123 235 -77 l44 20 22 -20 21 -20 22 23 c27 29 27 34 2 55 -19 17 -19 18 -3 64 19 52 19 54 -19 63 -24 6 -29 3 -40 -21 -7 -16 -13 -31 -14 -33 -2 -2 -20 12 -40 32 l-37 34 31 18 c76 45 67 142 -16 165 -47 13 -60 12 -98 -4z m86 -65 c12 -24 6 -42 -21 -59 -26 -16 -49 0 -49 34 0 40 52 58 70 25z m-22 -192 c46 -44 50 -54 26 -63 -51 -20 -114 4 -114 42 0 20 27 62 39 62 4 0 27 -18 49 -41z"/>

<!-- H - navy -->
<path fill="#0B3350" d="M1490 415 l0 -195 45 0 45 0 0 80 0 80 89 0 89 0 -5 -80 -5 -80 46 0 46 0 1 150 c0 83 1 169 1 193 l1 42 -43 0 -42 0 -1 -72 0 -73 -89 0 -88 0 0 75 0 75 -45 0 -45 0 0 -195z"/>

<!-- T - navy -->
<path fill="#0B3350" d="M1890 569 l0 -40 61 2 62 3 -2 -157 -2 -157 45 0 c42 0 45 2 51 32 4 17 6 88 4 157 l-4 126 63 -1 62 -1 0 39 0 38 -170 0 -170 0 0 -41z"/>

</g>
</svg>
